<?xml version="1.0" encoding="UTF-8"?>
<svg id="Layer_6_Image" data-name="Layer 6 Image" xmlns="http://www.w3.org/2000/svg" viewBox="0 0 85.34 115.21">
  <defs>
    <style>
      .cls-1 {
        fill: #d6d7db;
        stroke-width: 0px;
      }
    </style>
  </defs>
  <path class="cls-1" d="m.18,0v115.2s-.15.07-.15-.07c0-.19,0-.38,0-.58C.04,76.58.04,38.62.05.65c0-.21-.17-.49.13-.65Z"/>
  <path class="cls-1" d="m65.46,57.7c0-9.26,0-18.53,0-27.79,0-1.46.59-2.65,1.54-3.7.38-.42.82-.79,1.2-1.22.51-.58,1.23-.83,1.86-1.21.6-.35,1.36-.33,1.88-.84.03-.03.09-.02.14-.02,1.01,0,1.96-.49,2.99-.35.35.05.72.02,1.08,0,.94-.03,1.8.28,2.69.53.44.13.85.32,1.32.4.47.08.93.36,1.3.64,1.17.9,2.34,1.77,3.05,3.2.6,1.19.84,2.34.84,3.63-.01,18.12-.01,36.24,0,54.35,0,.97-.42,1.79-.78,2.65-.35.84-.93,1.46-1.55,2.07-.56.55-1.24.93-1.9,1.31-.52.3-1.08.63-1.64.81-.55.18-1.11.44-1.75.42-1.53-.04-3.07-.03-4.6,0-.7.01-1.28-.3-1.91-.5-.54-.17-1.03-.38-1.53-.65-.85-.46-1.54-1.07-2.23-1.72-.67-.62-1.18-1.37-1.56-2.15-.28-.56-.44-1.24-.44-1.95.03-9.31.02-18.62.02-27.93Z"/>
  <path class="cls-1" d="m30.08,57.6c0-9.28.01-18.57-.02-27.85,0-.96.36-1.73.77-2.5.59-1.12,1.63-1.85,2.51-2.72.36-.35.95-.46,1.39-.74.55-.35,1.19-.5,1.76-.8.02-.01.04-.04.06-.04.55.04,1.02-.29,1.55-.32,1.19-.08,2.41-.16,3.58.02,1.06.16,2.08.54,3.09.94.74.3,1.4.73,2.07,1.12.66.38,1.27.96,1.62,1.69.17.35.46.62.65.96.32.57.29,1.27.78,1.78.15.15.06.55.06.84,0,1.97,0,3.93,0,5.9,0,16.39,0,32.77,0,49.16,0,.77-.34,1.42-.5,2.12-.17.8-.62,1.42-1.04,2.04-.35.52-.8,1.03-1.41,1.32-.39.19-.66.55-1.09.71-.6.22-1.13.57-1.73.81-.42.17-.9.13-1.29.46-.18.15-.55.09-.83.09-1.37,0-2.73,0-4.1,0-.78,0-1.47-.31-2.19-.52-.54-.16-1.05-.36-1.54-.66-.57-.34-1.14-.66-1.61-1.14-.43-.44-.91-.84-1.31-1.3-.44-.51-.68-1.13-.95-1.75-.48-1.11-.29-2.24-.3-3.36-.02-8.76,0-17.51,0-26.27Z"/>
</svg>