<?xml version="1.0" encoding="UTF-8"?>
<svg id="Layer_7_Image" data-name="Layer 7 Image" xmlns="http://www.w3.org/2000/svg" viewBox="0 0 89.96 115.21">
  <defs>
    <style>
      .cls-1 {
        fill: #d6d7db;
        stroke-width: 0px;
      }
    </style>
  </defs>
  <path class="cls-1" d="m.18,0v115.2s-.15.07-.15-.07c0-.19,0-.38,0-.58C.04,76.58.04,38.62.05.65c0-.21-.17-.49.13-.65Z"/>
  <path class="cls-1" d="m30.25,57.58c0-8.86.03-17.71-.01-26.57-.01-2.98,1.82-7,6.34-8.19,2.38-.63,4.65-.21,6.75,1.1,6.91,4.31,13.83,8.61,20.75,12.92,7.1,4.42,14.21,8.82,21.3,13.27,1.93,1.21,3.45,2.8,4.17,5.05,1.15,3.55-.15,7.47-3.28,9.58-1.73,1.17-3.53,2.22-5.3,3.32-12.51,7.75-25.01,15.51-37.52,23.25-3.45,2.14-7.62,1.76-10.5-.94-1.81-1.69-2.69-3.8-2.69-6.29,0-8.83,0-17.66,0-26.49Z"/>
</svg>