<?xml version="1.0" encoding="UTF-8"?>
<svg id="github_Image" data-name="github Image" xmlns="http://www.w3.org/2000/svg" viewBox="0 0 122.88 120">
  <defs>
    <style>
      .cls-1 {
        fill: #010101;
        stroke-width: 0px;
      }
    </style>
  </defs>
  <path class="cls-1" d="m57.12,0h8.16c.18.42.55.21.83.23,4.11.33,8.15,1,12.13,2.12,6.12,1.72,11.79,4.39,17.09,7.87,4.67,3.07,8.85,6.72,12.5,10.94,4.15,4.8,7.51,10.12,10.04,15.94,2.38,5.49,3.92,11.2,4.58,17.15.09.79-.06,1.65.43,2.38v10.08c-.33.08-.24.37-.26.58-.35,3.26-.84,6.49-1.66,9.67-1.54,5.99-3.95,11.62-7.25,16.84-3.28,5.2-7.18,9.89-11.79,13.96-3.91,3.45-8.21,6.33-12.87,8.66-2.8,1.4-5.72,2.48-8.65,3.56h-1.44c-.6-.36-1.25-.64-1.67-1.26-.5-.74-.55-1.56-.55-2.41,0-5.24,0-10.48,0-15.72,0-1.56-.09-3.11-.36-4.66-.46-2.62-1.43-4.98-3.35-6.88-.31-.31-.38-.5.18-.54.52-.04,1.03-.15,1.54-.22,3.89-.53,7.67-1.42,11.26-3.08,6.2-2.86,10.52-7.33,12.66-13.9,1.44-4.42,1.99-8.94,1.94-13.57-.03-2.37-.36-4.7-1.05-6.96-.95-3.09-2.51-5.85-4.64-8.3-.34-.39-.63-.68-.39-1.35,1.87-5.1,1.22-10.12-.63-15.09-.17-.44-.38-.61-.83-.68-1.47-.26-2.86.05-4.24.47-3.99,1.23-7.67,3.13-11.15,5.42-.63.42-1.2.5-1.9.3-2.11-.62-4.28-1.02-6.45-1.3-7.45-.98-14.83-.62-22.12,1.28-.81.21-1.43.13-2.12-.35-3.3-2.3-6.96-3.88-10.73-5.2-1.36-.48-2.77-.75-4.23-.66-.71.04-1.18.26-1.34,1.03-.14.66-.42,1.29-.61,1.94-1.14,4.04-1.43,8.11-.06,12.15.35,1.05.19,1.69-.51,2.5-3.2,3.73-4.91,8.12-5.26,12.98-.34,4.73.05,9.43,1.43,14,1.02,3.38,2.41,6.61,4.77,9.3,3.81,4.33,8.76,6.69,14.24,8.11,2.21.57,4.46.91,6.72,1.18.7.08.58.26.22.65-.46.5-.91,1-1.28,1.58-.98,1.54-1.63,3.2-1.9,4.99-.12.79-.43,1.23-1.22,1.52-1.4.51-2.83.83-4.29,1.04-4.07.59-7.6-.43-10.41-3.54-1-1.1-1.74-2.38-2.56-3.61-1.74-2.63-4.16-4.39-7.13-5.37-1.22-.4-2.5-.55-3.77-.14-.94.31-1.08.65-.59,1.48.54.92,1.31,1.63,2.22,2.14,1.43.8,2.52,1.94,3.49,3.23,1.46,1.92,2.51,4.07,3.4,6.3.78,1.95,2.09,3.45,3.8,4.66,2.34,1.66,5.03,2.13,7.79,2.41,2.72.27,5.43.2,8.12-.3.48-.09.72-.06.73.54.02,3.56.08,7.12.09,10.68,0,1.13-.44,2.08-1.42,2.76-.36.25-.88.04-1.14.47h-1.68c-.36-.49-.95-.53-1.45-.71-5.6-1.99-10.81-4.73-15.58-8.27-5.83-4.33-10.7-9.58-14.74-15.61C4.78,87.27,1.47,78.37.43,68.62c-.07-.63.06-1.34-.43-1.9v-10.32c.39-.12.24-.46.26-.7.36-3.7,1-7.35,2-10.94,1.71-6.12,4.37-11.8,7.86-17.1,3.09-4.7,6.76-8.92,11.02-12.59,4.81-4.15,10.13-7.5,15.95-10.03,5.64-2.44,11.52-4,17.64-4.6.8-.08,1.65.05,2.38-.44Z"/>
</svg>