<?xml version="1.0" encoding="UTF-8"?>
<svg id="Layer_9_Image" data-name="Layer 9 Image" xmlns="http://www.w3.org/2000/svg" viewBox="0 0 555.84 448.38">
  <defs>
    <style>
      .cls-1 {
        fill: #fff;
        stroke-width: 0px;
      }
    </style>
  </defs>
  <path class="cls-1" d="m555.84,301.92c-.19-.09-.34-.35-.6-.08-.32.33-.25.73-.28,1.12-.66,8.84-1.95,17.6-3.59,26.3-2.6,13.82-6.22,27.38-10.89,40.66-8.69,24.73-20.62,47.78-35.8,69.14-.23.33-.46.65-.7.98-.86,1.15-.83,1.07-2.24.51-1.39-.56-2.88-.87-4.29-1.4-2.38-.89-4.87-1.55-6.95-3.12-.18-.14-.43-.21-.66-.28-4.07-1.23-7.65-3.44-11.36-5.42-1.4-.75-2.69-1.7-4.13-2.34-1.44-.64-2.98-1.1-4.37-1.86-1.53-.84-3.06-1.66-4.51-2.67-1.55-1.09-3.21-2.21-4.99-2.72-1.81-.52-3.63-.81-5.23-1.93-.49-.34-1.21-.37-1.84-.5-.81-.17-1.53-.52-2.06-1.15-.78-.92-1.78-1.14-2.92-1.4-1.51-.35-3.22-.21-4.52-1.35-.16-.14-.46-.19-.69-.16-2.02.25-3.92-.62-5.92-.65-1.8-.02-1.94-.26-1.91-2.18,0-.32.03-.64,0-.95-.04-.48-.12-.93-.63-1.2-1.29-.68-2.11-1.66-1.96-3.23.06-.61-.36-1.02-.76-1.43-2.72-2.71-5.43-5.43-8.15-8.14-.87-.86-1.96-1.41-3.07-1.81-3.07-1.12-6.24-1.95-9.47-2.42-1.43-.21-2.59-.73-3.56-1.73-1-1.02-2-1.97-3.4-2.53-1.16-.47-2.02-1.54-2.99-2.35-2.44-2.04-5.13-3.79-7.37-6.07-.47-.47-1.04-.68-1.64-.93-1.09-.44-1.82-1.25-2.03-2.48-.15-.94-.38-1.87-.57-2.81-.06-.31-.04-.66-.18-.94-1.3-2.62-2.61-5.24-3.98-7.82-.29-.55-.83-.96-1.27-1.43-.6-.64-1.26-1.24-1.41-2.17-.02-.15-.07-.35-.18-.44-1.67-1.31-1.17-2.8-.62-4.5.99-3.02,1.43-6.2,2.52-9.2-.14-2.29,1.3-4.22,1.45-6.46.04-.63.3-1.25.31-1.88.02-1.13.13-2.21.73-3.21.24-.39.42-.91.39-1.36-.21-3.47,1.2-6.74,1.18-10.18.99-2.25.16-4.75.97-7.06.3-.86.11-1.9.12-2.86.02-1.83-.1-3.66.44-5.47.2-.67.12-1.43.11-2.14,0-.89.02-1.73.64-2.48.53-.64.55-1.48.55-2.29,0-2,0-4,0-6,0-1.49-.48-2.84-1.23-4.08-.4-.66-.53-1.31-.52-2.04.02-1.12,0-2.24,0-3.36,0-1.2.06-2.4-.82-3.41-.45-.52-.26-1.22-.29-1.86-.07-1.51.2-3.04-.39-4.51-.23-.56-.11-1.14.33-1.55,1.27-1.19,1.52-2.84,1.63-4.37.13-1.83.81-3.43,1.61-4.95.52-.98.73-1.9.73-2.95,0-.96-.03-1.92,0-2.88.06-1.79,1.04-2.78,2.8-2.89.4-.02.8,0,1.2,0,.52,0,.97-.13,1.11-.7.23-.95.95-1.42,1.72-1.88.85-.51,1.4-1.26,1.68-2.24.53-1.91,1.54-3.68,1.64-5.72.04-.79.47-1.37,1.02-1.83,1.19-.99,1.83-2.41,2.87-3.51.6-.63.72-1.44.63-2.24-.28-2.74.89-4.98,2.51-7.01.65-.82.89-1.65.88-2.65-.02-1.76.04-3.52-.02-5.28-.04-1.32.24-2.55.76-3.72.45-1.03.97-2.01.91-3.18-.03-.51.3-.9.61-1.27.36-.43.82-.78.94-1.36.46-2.28,1.71-4.25,2.54-6.39.6-1.56.67-3.15.2-4.7-.31-1.03-.34-2.04-.34-3.07,0-5.36-.05-10.72.02-16.08.03-2.21-.49-4.31-1.1-6.34-.66-2.22-1-4.24.19-6.4.6-1.08.5-2.33-.56-3.28-.3-.27-.56-.57-.85-.85-.95-.91-1.36-1.88-.76-3.22.28-.62.23-1.41.26-2.12.04-.92-.28-1.7-.97-2.35-.99-.93-1.93-1.92-2.89-2.88-.76-.75-1.36-1.54-1.23-2.72.09-.82-.17-1.58-.82-2.16-.79-.71-.9-1.63-.87-2.63.04-1.44-.01-2.88.02-4.32.03-1.52-.5-2.77-1.52-3.89-1.42-1.55-2.42-3.33-2.48-5.51-.02-.68-.31-1.21-.79-1.68-.85-.83-1.74-1.65-2.28-2.75-.22-.45-.68-.65-1.08-.91-1.36-.88-2.38-2.13-3.52-3.25-.48-.47-.72-1.04-.7-1.72.02-.64-.03-1.28.01-1.92.09-1.35-.19-2.52-1.3-3.43-.42-.35-.89-.81-1.02-1.3-.45-1.68-1.6-2.91-2.49-4.31-.13-.2-.35-.38-.39-.6-.36-1.97-1.78-3.3-2.88-4.83-1.12-1.55-2.16-3.09-2.33-5.13-.11-1.23-.81-2.37-1.86-3.23-2.14-1.74-3.6-4.05-5.06-6.33-.81-1.27-1.48-2.64-1.3-4.26.09-.82-.25-1.52-.81-2.18-2.37-2.81-4.82-5.54-7.49-8.07-.58-.55-1.09-1.17-1.94-1.34-.57-.11-1.01-.48-1.4-.88-1.45-1.49-3.3-2.51-4.82-3.89-1.97-1.79-4.22-3.07-6.52-4.3-.42-.22-.77-.57-1.12-.89-.36-.32-.73-.65-1.23-.69-2.06-.17-3.7-1.21-5.32-2.39-1.21-.87-2.37-1.91-3.93-2.2-.22-.04-.46-.18-.63-.33-1.52-1.38-3.48-1.78-5.32-2.46-.37-.14-.76-.27-1.07-.5-.76-.56-1.6-.7-2.5-.66-1.16.05-2.24-.2-3.11-.99-.51-.46-1.12-.56-1.76-.66-2.83-.43-5.64-.91-8.31-1.99-.22-.09-.46-.19-.69-.19-2.35-.02-4.47-1.07-6.71-1.54-1.01-.21-2.05-.28-3.06-.49-1.84-.39-3.79-.39-5.37-1.73-.4-.34-1.23-.22-1.86-.24-1.43-.05-2.85.06-4.26-.43-.65-.23-1.42-.14-2.14-.15-1.59-.03-3.16-.06-4.75-.4-1.46-.31-3.02-.15-4.54-.19-.96-.02-1.9,0-2.84-.32-.66-.22-1.41-.24-2.13-.25-1.76-.03-3.57-.28-5.27.05-3.18.61-6.39.18-9.52.62-2.62.36-5.38.51-7.81,1.87-.33.18-.77.25-1.15.24-2.43-.04-4.72.64-7.04,1.2-.63.15-1.23.29-1.76.69-.25.19-.56.36-.85.4-3.11.41-5.93,1.68-8.78,2.88-.51.21-1.04.47-1.58.51-.85.05-1.51.49-2.2.87-.49.27-.95.7-1.46.76-1.72.19-2.93,1.16-4.03,2.36-1.39,1.51-3.36,2.08-5.03,3.13-.44.27-.92.14-1.38-.04-1.29-.52-2.48-.26-3.67.4-1.18.66-2.43,1.19-3.64,1.79-.93.47-1.76,1.08-2.47,1.87-.71.79-1.5,1.4-2.68,1.34-1.01-.05-1.84.51-2.56,1.15-3.44,3.1-7.02,6.05-10.11,9.51-1.74,1.96-3.42,4-4.15,6.62-.11.38-.22.82-.47,1.09-.87.95-1.21,2.04-1.11,3.3.02.23,0,.53-.14.69-1.22,1.43-.98,3.14-.99,4.81-.02,2.73-.86,3.78-3.63,4.45-.69.17-1.34.49-2.1.45-1.32-.08-2.47.18-3.48,1.22-.72.74-1.87.92-2.9.96-1.43.06-2.55.83-3.73,1.47-.33.18-.66.52-.79.86-.89,2.38-2.84,3.78-4.72,5.26-.5.39-.99.81-1.44,1.25-2.05,2.03-4.08,4.06-6.11,6.11-.74.75-1.48,1.44-2.62,1.52-.78.06-1.26.59-1.61,1.28-.89,1.79-1.81,3.56-3.41,4.85-.56,1.65-2.1,2.8-2.38,4.61-.12.76-.67,1.26-1.18,1.77-1.64,1.62-2.77,3.44-2.79,5.86,0,.77-.29,1.58-.61,2.3-1.22,2.76-2.51,5.49-3.78,8.23-.1.22-.2.44-.36.61-1.83,2.01-2.51,4.54-3.25,7.06-.74,2.52-1.57,5.01-2.18,7.57-.63,2.65-1.15,5.28-1.01,8.02.05,1.04-.03,2.08.02,3.12.06,1.4-.16,2.69-1.11,3.8-.74.87-.64,1.94-.64,2.97,0,5.84,0,11.68,0,17.52,0,1.76.02,3.52,0,5.28-.02,1.21-.02,2.4.82,3.41.19.23.35.6.31.88-.28,2.42.74,4.72.62,7.12-.05.96.04,1.89.6,2.75.29.45.37,1.04.5,1.59.15.64.35,1.22.86,1.67.98.89,1.08,2.28,1.83,3.32.16.22.2.7.07.92-.8,1.38-.32,2.98-.83,4.44-.36,1.01-.21,2.21-.23,3.33-.02,1.52,0,3.04.02,4.56,0,.84.3,1.52.94,2.11.89.81,1.7,1.7,2.55,2.54.65.65,1.06,1.37.97,2.34-.04.47,0,.96.08,1.43.16.97.71,1.59,1.72,1.72.39.05.8.04,1.19.1.39.06.81.09,1.16.25,2.27,1.02,3.88,2.85,5.19,4.83.65.98.62,2.44.76,3.7.14,1.31.72,2.25,1.81,2.93,1.49.93,2.11,2.38,2.15,4.03.07,2.6.67,4.97,2.03,7.25,1.24,2.07,1.09,4.51.6,6.78-.6,2.71-.25,5.41-.31,8.12,0,.31.06.7.24.91,1.05,1.23.84,2.69.85,4.11,0,1.28,0,2.56,0,3.84,0,.88.03,1.75-.32,2.6-.28.67-.27,1.41-.26,2.13.01,1.04.06,2.08,0,3.12-.16,2.66.32,5.24.94,7.8.11.46.25.94.22,1.4-.24,3.79.9,7.39,1.45,11.07.31,2.03.89,4.06.77,6.14-.07,1.16.42,2.19.67,3.27.88,3.79,1.75,7.59,2.71,11.37.6,2.39,1.26,4.76,2.03,7.1,1.17,3.55,2.26,7.12,3.18,10.75.08.3.23.6.4.86.94,1.38.58,2.79-.02,4.11-.42.93-1.02,1.82-1.7,2.59-3.44,3.94-6.13,8.31-7.87,13.25-.35,1-.94,1.84-1.69,2.58-1.82,1.8-3.58,3.66-5.45,5.41-1.28,1.2-2.65,2.31-4.07,3.33-.88.64-1.8,1.22-3.02,1.29-1.41.08-2.5,1.07-3.42,2.03-1.8,1.86-4.17,2.93-6.06,4.65-.17.15-.43.2-.66.27-2.14.6-3.48,2.2-4.67,3.89-.92,1.31-2.06,2.2-3.55,2.7-2.8.93-5.47,2.16-7.86,3.9-1.09.8-2.41.83-3.51,1.42-1.04.56-1.65,1.74-2.86,2.11-.46.14-.9.31-1.34.51-1.73.77-3.42,1.53-4.96,2.77-1.7,1.38-3.81,2.26-5.8,3.25-.57.29-1.14.54-1.62.97-.36.33-.74.62-1.23.7-2.2.37-3.8,1.77-5.02,3.42-1.58,2.15-3.54,3.9-5.34,5.81-.6.64-1.16,1.29-1.66,2.02-1.28,1.86-2.92,3.12-5.39,2.91-1.37-.11-2.73.37-3.88,1.02-1.4.79-2.77.76-4.15.38-1.55-.43-2.95-.53-4.33.48-.42.31-1.06.29-1.59.48-1.04.37-2.18.52-2.97,1.42-.39.44-.9.63-1.5.63-.92,0-1.64.42-2.37.98-1.24.96-2.85,1.39-3.86,2.71-.23.3-.59.08-.81-.17-.31-.36-.6-.75-.89-1.13-19.49-25.51-34.17-53.53-43.97-84.1-3.95-12.32-7.02-24.86-9.24-37.6-.87-5.02-1.49-10.08-2.14-15.14-.65-4.98-1.07-9.98-1.34-14.99-.03-.48-.02-.99-.21-1.41-.14-.31-.54-.22-.78.07v-3.36c.19.08.53.33.54.02.02-2.1-.04-4.21-.09-6.31,0-.24-.18-.41-.45-.43v-10.56c.34-.13.52-.42.51-.74-.07-2.71.14-5.41.31-8.11.27-4.37.59-8.74.98-13.11.56-6.27,1.43-12.49,2.44-18.7,1.44-8.81,3.35-17.52,5.65-26.15,5.83-21.84,14.24-42.64,25.13-62.45,11.3-20.56,25.02-39.36,41.1-56.43,10.32-10.96,21.47-21.02,33.46-30.15,28.8-21.94,60.64-37.72,95.57-47.28,11.71-3.2,23.56-5.65,35.6-7.24,6.33-.84,12.65-1.62,19.03-1.9.47-.02.96.03,1.37-.28.29-.22.05-.4-.04-.59h34.08c-.4.8.32.76.68.79,2.39.2,4.77.32,7.16.53,6.44.57,12.83,1.41,19.22,2.41,12.32,1.92,24.44,4.69,36.35,8.35,50.84,15.6,93.91,43.31,128.97,83.29,25.85,29.48,44.45,63.09,56.13,100.52,3.74,11.97,6.61,24.16,8.66,36.53,1.15,6.92,2.14,13.87,2.6,20.88.03.39.02.79.28,1.13.22.29.4.06.59-.02v47.52Z"/>
</svg>