<?xml version="1.0" encoding="UTF-8"?>
<svg id="Layer_2_Image" data-name="Layer 2 Image" xmlns="http://www.w3.org/2000/svg" viewBox="0 0 114.72 114.72">
  <defs>
    <style>
      .cls-1 {
        fill: #fff;
        stroke-width: 0px;
      }
    </style>
  </defs>
  <path class="cls-1" d="m108,114.72H6.48c-.02-.19-.16-.23-.32-.27-2.83-.85-4.8-2.62-5.8-5.43-.07-.2-.03-.5-.36-.53V6.24c.19-.02.23-.16.28-.32C1.2,3.03,3.14,1.16,6.04.29c.18-.05.41-.01.44-.29h101.52c.03.19.17.22.33.25,2.54.51,4.28,2.04,5.55,4.23.37.64.36,1.42.84,2v102c-.39.05-.32.42-.4.64-.89,2.51-2.65,4.12-5.07,5.13-.41.17-.95.02-1.25.47Zm-63.23-44.37c0,8.68,0,17.35,0,26.03,0,1.56.06,1.27,1.31,1.27,4.72,0,9.44,0,14.15,0,.24,0,.48-.01.72,0,.4.03.6-.14.6-.54,0-.28,0-.56,0-.84,0-8.44-.03-16.87.02-25.31.01-2.26.03-4.55.6-6.77.55-2.14,1.34-4.15,3.11-5.6,2.68-2.19,5.82-2.37,9.02-1.79,3.05.56,4.73,2.67,5.61,5.52.77,2.5.83,5.09.84,7.67.03,8.84,0,17.67.01,26.51,0,1.14,0,1.14,1.07,1.14,4.96,0,9.92,0,14.87,0,.95,0,.96-.01.96-.98,0-3.92.04-7.84,0-11.76-.1-7.79.3-15.59-.24-23.37-.24-3.57-.9-7.06-2.42-10.34-1.9-4.1-4.98-6.89-9.31-8.26-1.63-.51-3.28-.82-4.98-1.01-2.88-.33-5.72-.29-8.52.44-4.56,1.19-8.2,3.68-10.69,7.75-.1.17-.18.41-.41.36-.27-.06-.14-.33-.14-.49-.01-1.92,0-3.84,0-5.76,0-1.17,0-1.17-1.18-1.17-4.6,0-9.2,0-13.79,0-1.2,0-1.21,0-1.21,1.26,0,8.68,0,17.35,0,26.03Zm-27.71-.03c0,8.72,0,17.44,0,26.16,0,1.17,0,1.17,1.19,1.17,4.84,0,9.68,0,14.52,0,1.16,0,1.17,0,1.17-1.17,0-17.44,0-34.88,0-52.31,0-1.1,0-1.11-1.12-1.11-4.84,0-9.68,0-14.52,0-1.24,0-1.25,0-1.25,1.23,0,8.68,0,17.36,0,26.04Zm-1.24-44.67c-.16,5.3,4.2,9.81,9.6,9.87,5.18.05,9.97-3.8,9.98-9.79.01-5.53-4.1-9.8-9.84-9.84-5.83-.04-9.88,4.82-9.74,9.77Z"/>
</svg>